<?xml version="1.0" encoding="utf-8"?>
<!-- Generator: Adobe Illustrator 15.1.0, SVG Export Plug-In . SVG Version: 6.00 Build 0)  -->
<!DOCTYPE svg PUBLIC "-//W3C//DTD SVG 1.1//EN" "http://www.w3.org/Graphics/SVG/1.1/DTD/svg11.dtd">
<svg version="1.1" id="Layer_1" xmlns="http://www.w3.org/2000/svg" xmlns:xlink="http://www.w3.org/1999/xlink" x="0px" y="0px"
	 width="141px" height="48px" viewBox="0 0 141 48" enable-background="new 0 0 141 48" xml:space="preserve">
<g>
	<path fill="#404040" d="M126.343,16.785h-8.695c-0.52,0-0.94,0.421-0.94,0.94c0,0.52,0.421,0.94,0.94,0.94h3.407v11.602
		c0,0.52,0.421,0.941,0.94,0.941s0.94-0.422,0.94-0.941V18.666h3.407c0.52,0,0.94-0.42,0.94-0.94
		C127.283,17.206,126.862,16.785,126.343,16.785"/>
	<path fill="#404040" d="M139.977,16.847c-0.11-0.042-0.223-0.062-0.334-0.062c-0.379,0-0.736,0.231-0.879,0.607l-3.883,10.231
		l-3.896-10.232c-0.186-0.485-0.729-0.729-1.214-0.544c-0.485,0.185-0.729,0.729-0.544,1.214l4.777,12.542
		c0.139,0.365,0.488,0.605,0.879,0.605l0,0c0.391,0,0.74-0.242,0.879-0.607l4.76-12.542
		C140.706,17.574,140.462,17.031,139.977,16.847"/>
	<path fill="#404040" d="M10.814,16.785c-0.52,0-0.94,0.421-0.94,0.94v5.331H2.215v-5.331c0-0.519-0.421-0.94-0.94-0.94
		s-0.94,0.421-0.94,0.94V30.27c0,0.518,0.421,0.939,0.94,0.939s0.94-0.422,0.94-0.939v-5.333h7.659v5.333
		c0,0.518,0.421,0.939,0.94,0.939s0.94-0.422,0.94-0.939V17.726C11.755,17.207,11.334,16.785,10.814,16.785"/>
	<path fill="#404040" d="M37.452,16.785c-0.52,0-0.94,0.421-0.94,0.94v9.755l-7.851-10.322c-0.008-0.011-0.018-0.019-0.027-0.029
		c-0.028-0.033-0.056-0.065-0.088-0.095c-0.015-0.014-0.031-0.027-0.048-0.04c-0.032-0.025-0.063-0.049-0.098-0.07
		c-0.018-0.011-0.036-0.02-0.055-0.029c-0.036-0.019-0.072-0.036-0.11-0.05c-0.019-0.007-0.038-0.012-0.057-0.018
		c-0.039-0.012-0.078-0.021-0.119-0.028c-0.021-0.003-0.042-0.004-0.064-0.006c-0.027-0.002-0.054-0.009-0.083-0.009
		c-0.012,0-0.024,0.003-0.036,0.004c-0.021,0-0.041,0.003-0.062,0.006c-0.042,0.004-0.083,0.009-0.123,0.019
		c-0.016,0.004-0.031,0.01-0.047,0.015c-0.043,0.013-0.086,0.027-0.127,0.046c-0.014,0.007-0.027,0.015-0.04,0.021
		c-0.042,0.022-0.082,0.046-0.12,0.074c-0.004,0.003-0.01,0.005-0.014,0.009c-0.011,0.007-0.018,0.018-0.028,0.026
		c-0.033,0.027-0.065,0.056-0.094,0.087c-0.016,0.017-0.028,0.035-0.042,0.052c-0.024,0.029-0.046,0.06-0.065,0.092
		c-0.013,0.021-0.024,0.043-0.036,0.065c-0.016,0.031-0.031,0.063-0.043,0.096c-0.009,0.026-0.017,0.052-0.024,0.078
		c-0.009,0.031-0.017,0.063-0.022,0.095c-0.006,0.032-0.008,0.063-0.01,0.096c-0.001,0.02-0.006,0.039-0.006,0.059V30.27
		c0,0.518,0.421,0.939,0.94,0.939s0.94-0.422,0.94-0.939v-9.752l7.851,10.324c0.014,0.018,0.032,0.029,0.047,0.047
		c0.021,0.023,0.043,0.049,0.068,0.07c0.027,0.025,0.056,0.049,0.086,0.07c0.021,0.016,0.042,0.029,0.064,0.043
		c0.036,0.021,0.07,0.041,0.108,0.057c0.017,0.008,0.035,0.014,0.053,0.02c0.104,0.039,0.212,0.064,0.323,0.064
		c0.123,0,0.244-0.027,0.361-0.076c0.003-0.002,0.006-0.002,0.009-0.004c0.051-0.021,0.101-0.049,0.149-0.082
		c0.003-0.002,0.006-0.004,0.01-0.006c0.014-0.008,0.028-0.016,0.041-0.025c0.026-0.02,0.047-0.043,0.07-0.066
		c0.012-0.01,0.024-0.02,0.035-0.031c0.031-0.033,0.059-0.066,0.084-0.102c0.01-0.014,0.021-0.027,0.031-0.043
		c0.022-0.035,0.041-0.07,0.059-0.107c0.009-0.02,0.018-0.039,0.026-0.059c0.014-0.035,0.024-0.07,0.033-0.107
		c0.006-0.023,0.013-0.047,0.017-0.072c0.006-0.035,0.009-0.072,0.011-0.107c0.001-0.02,0.005-0.037,0.005-0.055V17.726
		C38.392,17.207,37.972,16.785,37.452,16.785"/>
	<path fill="#404040" d="M20.251,17.391c-0.139-0.365-0.489-0.606-0.879-0.606h0c-0.391,0.001-0.74,0.242-0.879,0.607l-4.76,12.543
		c-0.184,0.484,0.061,1.027,0.546,1.213c0.11,0.041,0.223,0.061,0.333,0.061c0.379,0,0.737-0.23,0.879-0.607l1.436-3.783h4.902
		l1.441,3.785c0.186,0.484,0.729,0.729,1.214,0.543c0.486-0.184,0.729-0.727,0.544-1.213L20.251,17.391z M17.641,24.938l1.732-4.565
		l1.739,4.565H17.641z"/>
	<path fill="#404040" d="M44.524,16.782H41.42c-0.036,0-0.07,0.007-0.104,0.01c-0.023-0.001-0.046-0.007-0.07-0.007
		c-0.52,0-0.94,0.421-0.94,0.94v12.542c0,0.52,0.421,0.941,0.94,0.941c0.029,0,0.057-0.006,0.086-0.008
		c0.007,0,0.013,0.002,0.021,0.002h3.172c3.976,0,7.21-3.234,7.21-7.211C51.734,20.016,48.5,16.782,44.524,16.782 M44.524,29.322
		h-2.338V18.663h2.338c2.938,0,5.329,2.391,5.329,5.329C49.854,26.93,47.463,29.322,44.524,29.322"/>
	<path fill="#404040" d="M58.185,23.117c-1.869-0.704-2.688-1.127-2.688-2.234c0-1.227,1.265-2.225,2.819-2.225
		c0.875,0,1.688,0.317,2.23,0.87c0.364,0.372,0.959,0.376,1.33,0.013c0.371-0.364,0.377-0.959,0.013-1.33
		c-0.894-0.911-2.196-1.434-3.573-1.434c-2.592,0-4.701,1.842-4.701,4.105c0,2.524,2.167,3.339,3.907,3.994
		c1.916,0.72,2.755,1.16,2.755,2.335c0,1.227-1.265,2.225-2.82,2.225c-0.875,0-1.688-0.318-2.23-0.871
		c-0.363-0.371-0.959-0.375-1.33-0.012c-0.371,0.363-0.376,0.959-0.013,1.33c0.894,0.91,2.196,1.434,3.573,1.434
		c2.592,0,4.701-1.842,4.701-4.105C62.159,24.612,59.956,23.783,58.185,23.117"/>
	<path fill="#D50F50" d="M103.195,30.67c0.009-0.02,0.019-0.039,0.026-0.059c0.014-0.035,0.024-0.07,0.033-0.107
		c0.007-0.023,0.013-0.047,0.017-0.072c0.007-0.035,0.009-0.072,0.012-0.107c0.001-0.02,0.005-0.037,0.005-0.057V17.726
		c0-0.519-0.421-0.94-0.94-0.94s-0.94,0.421-0.94,0.94v9.755l-7.851-10.322c-0.008-0.011-0.019-0.019-0.026-0.029
		c-0.028-0.033-0.057-0.065-0.089-0.094c-0.016-0.015-0.031-0.027-0.048-0.04c-0.031-0.025-0.063-0.049-0.099-0.07
		c-0.018-0.011-0.036-0.02-0.055-0.03c-0.035-0.018-0.071-0.036-0.109-0.049c-0.019-0.007-0.038-0.012-0.058-0.018
		c-0.038-0.012-0.077-0.021-0.118-0.027c-0.021-0.003-0.043-0.005-0.063-0.007c-0.028-0.002-0.056-0.008-0.084-0.008
		c-0.013,0-0.023,0.003-0.036,0.003c-0.021,0.001-0.041,0.004-0.062,0.006c-0.041,0.005-0.083,0.009-0.123,0.02
		c-0.016,0.003-0.031,0.01-0.048,0.015c-0.043,0.013-0.086,0.027-0.127,0.046c-0.014,0.006-0.026,0.015-0.04,0.022
		c-0.041,0.022-0.081,0.045-0.119,0.073c-0.005,0.003-0.01,0.005-0.015,0.009c-0.01,0.008-0.018,0.018-0.027,0.026
		c-0.033,0.027-0.065,0.056-0.094,0.088c-0.016,0.016-0.029,0.034-0.043,0.052c-0.024,0.029-0.046,0.059-0.066,0.091
		c-0.013,0.022-0.024,0.044-0.035,0.066c-0.016,0.032-0.03,0.063-0.043,0.096c-0.01,0.025-0.017,0.051-0.024,0.078
		c-0.008,0.031-0.017,0.063-0.022,0.095c-0.005,0.032-0.008,0.064-0.01,0.097c-0.001,0.02-0.006,0.039-0.006,0.059v12.542
		c0,0.521,0.422,0.941,0.94,0.941c0.521,0,0.941-0.42,0.941-0.941v-9.75L101.6,30.84c0.013,0.02,0.031,0.031,0.046,0.049
		c0.021,0.023,0.044,0.047,0.068,0.07c0.027,0.025,0.056,0.049,0.086,0.072c0.021,0.014,0.043,0.027,0.065,0.041
		c0.035,0.02,0.07,0.041,0.107,0.057c0.018,0.008,0.035,0.014,0.053,0.02c0.104,0.039,0.212,0.063,0.323,0.063
		c0.122,0,0.244-0.025,0.36-0.074c0.004-0.002,0.006-0.002,0.01-0.004c0.051-0.021,0.101-0.049,0.148-0.082
		c0.003-0.002,0.007-0.004,0.01-0.006c0.014-0.01,0.027-0.016,0.04-0.025c0.026-0.02,0.047-0.043,0.07-0.064
		c0.012-0.012,0.024-0.021,0.035-0.033c0.031-0.033,0.058-0.066,0.084-0.102c0.01-0.014,0.021-0.027,0.03-0.043
		C103.159,30.742,103.178,30.707,103.195,30.67"/>
	<path fill="#D50F50" d="M82.782,16.799c-3.979,0-7.205,3.226-7.205,7.205c0,3.979,3.226,7.205,7.205,7.205
		c3.979,0,7.204-3.227,7.204-7.205C89.986,20.025,86.761,16.799,82.782,16.799 M82.782,29.328c-2.937,0-5.324-2.389-5.324-5.324
		c0-2.936,2.388-5.324,5.324-5.324c2.935,0,5.323,2.388,5.323,5.324C88.105,26.939,85.717,29.328,82.782,29.328"/>
	<path fill="#D50F50" d="M116.974,27.736c0.957,0,1.737,0.779,1.737,1.738s-0.78,1.736-1.737,1.736
		c-0.958,0-1.737-0.777-1.737-1.736S116.016,27.736,116.974,27.736"/>
	<path fill="#404040" d="M89.433,47.51c12.985,0,23.513-10.525,23.513-23.511c0-12.985-10.527-23.512-23.513-23.512
		c-6.639,0-12.63,2.756-16.905,7.18c0.403-0.375,0.939-0.59,1.492-0.59c0.568,0,1.106,0.216,1.517,0.608
		c0.875,0.835,0.906,2.226,0.072,3.101l0.001,0c3.483-3.644,8.396-5.91,13.823-5.91c10.545,0,19.123,8.579,19.123,19.124
		s-8.578,19.123-19.122,19.123c1.209,0,2.194,0.984,2.194,2.195C91.628,46.525,90.643,47.51,89.433,47.51"/>
	<path fill="#D50F50" d="M89.433,43.121c-10.544,0-19.123-8.578-19.123-19.123c0-4.946,1.882-9.637,5.297-13.211
		c0.836-0.875,0.805-2.267-0.069-3.103c-0.411-0.392-0.949-0.608-1.518-0.608c-0.596,0-1.174,0.248-1.586,0.678
		c-4.2,4.394-6.513,10.163-6.513,16.244c0,12.964,10.547,23.511,23.512,23.511c1.21,0,2.195-0.984,2.195-2.193
		C91.628,44.105,90.643,43.121,89.433,43.121"/>
</g>
</svg>
